# xmcd
#
# Track frame offsets: 
#        150
#        19122
#        36134
#        58073
#        80823
#        94379
#        112179
#        128299
#        144189
#        160997
#        173822
#        197514
#
# Disc length: 3062 seconds
#
# Revision: 0
# Processed by: cddbd v1.5.2PL0 Copyright (c) Steve Scherf et al.
# Submitted via: ExactAudioCopy v0.99pb3
#
DISCID=9d0bf40c
DTITLE=Chicago - Chicago
DYEAR=2001
DGENRE=Blues
TTITLE0=Feeelin' Stronger Every Day
TTITLE1=Just You And Me
TTITLE2=Rediscovery
TTITLE3=What's This World Comin' To
TTITLE4=Darlin' Dear
TTITLE5=Hollywood
TTITLE6=Jenny
TTITLE7=In Terms Of Two
TTITLE8=Something In This City Changes People
TTITLE9=Critic's Choice
TTITLE10=25 Or 6 To 4
TTITLE11=I'm A Man
EXTD=
EXTT0=
EXTT1=
EXTT2=
EXTT3=
EXTT4=
EXTT5=
EXTT6=
EXTT7=
EXTT8=
EXTT9=
EXTT10=
EXTT11=
PLAYORDER=
